<?xml version="1.0" encoding="UTF-8" standalone="no"?>
<svg
   xmlns:dc="http://purl.org/dc/elements/1.1/"
   xmlns:cc="http://creativecommons.org/ns#"
   xmlns:rdf="http://www.w3.org/1999/02/22-rdf-syntax-ns#"
   xmlns:svg="http://www.w3.org/2000/svg"
   xmlns="http://www.w3.org/2000/svg"
   xmlns:sodipodi="http://sodipodi.sourceforge.net/DTD/sodipodi-0.dtd"
   xmlns:inkscape="http://www.inkscape.org/namespaces/inkscape"
   viewBox="0 0 1167 1675"
   height="1675"
   width="1167"
   xml:space="preserve"
   id="svg2"
   version="1.1"
   sodipodi:docname="sailfish.svg"
   inkscape:version="0.92.3 (2405546, 2018-03-11)"><sodipodi:namedview
     pagecolor="#ffffff"
     bordercolor="#666666"
     borderopacity="1"
     objecttolerance="10"
     gridtolerance="10"
     guidetolerance="10"
     inkscape:pageopacity="0"
     inkscape:pageshadow="2"
     inkscape:window-width="1920"
     inkscape:window-height="1025"
     id="namedview112"
     showgrid="false"
     inkscape:zoom="0.2786611"
     inkscape:cx="423.6042"
     inkscape:cy="762.12393"
     inkscape:window-x="0"
     inkscape:window-y="27"
     inkscape:window-maximized="1"
     inkscape:current-layer="g10" /><metadata
     id="metadata8"><rdf:RDF><cc:Work
         rdf:about=""><dc:format>image/svg+xml</dc:format><dc:type
           rdf:resource="http://purl.org/dc/dcmitype/StillImage" /><dc:title></dc:title></cc:Work></rdf:RDF></metadata><defs
     id="defs6"><clipPath
       id="clipPath18"
       clipPathUnits="userSpaceOnUse"><path
         id="path16"
         d="M 0,2500 H 2500 V 0 H 0 Z"
         inkscape:connector-curvature="0" /></clipPath><clipPath
       id="clipPath30"
       clipPathUnits="userSpaceOnUse"><path
         id="path28"
         d="M 0,2500 H 2500 V 0 H 0 Z"
         inkscape:connector-curvature="0" /></clipPath><clipPath
       id="clipPath42"
       clipPathUnits="userSpaceOnUse"><path
         id="path40"
         d="M 0,2500 H 2500 V 0 H 0 Z"
         inkscape:connector-curvature="0" /></clipPath><clipPath
       id="clipPath54"
       clipPathUnits="userSpaceOnUse"><path
         id="path52"
         d="M 0,2500 H 2500 V 0 H 0 Z"
         inkscape:connector-curvature="0" /></clipPath><clipPath
       id="clipPath66"
       clipPathUnits="userSpaceOnUse"><path
         id="path64"
         d="M 0,2500 H 2500 V 0 H 0 Z"
         inkscape:connector-curvature="0" /></clipPath><clipPath
       id="clipPath78"
       clipPathUnits="userSpaceOnUse"><path
         id="path76"
         d="M 0,2500 H 2500 V 0 H 0 Z"
         inkscape:connector-curvature="0" /></clipPath><clipPath
       id="clipPath90"
       clipPathUnits="userSpaceOnUse"><path
         id="path88"
         d="M 0,2500 H 2500 V 0 H 0 Z"
         inkscape:connector-curvature="0" /></clipPath><clipPath
       id="clipPath102"
       clipPathUnits="userSpaceOnUse"><path
         id="path100"
         d="M 0,2500 H 2500 V 0 H 0 Z"
         inkscape:connector-curvature="0" /></clipPath><clipPath
       id="clipPath114"
       clipPathUnits="userSpaceOnUse"><path
         id="path112"
         d="M 0,2500 H 2500 V 0 H 0 Z"
         inkscape:connector-curvature="0" /></clipPath><clipPath
       id="clipPath126"
       clipPathUnits="userSpaceOnUse"><path
         id="path124"
         d="M 0,2500 H 2500 V 0 H 0 Z"
         inkscape:connector-curvature="0" /></clipPath><clipPath
       id="clipPath138"
       clipPathUnits="userSpaceOnUse"><path
         id="path136"
         d="M 0,2500 H 2500 V 0 H 0 Z"
         inkscape:connector-curvature="0" /></clipPath><clipPath
       id="clipPath162"
       clipPathUnits="userSpaceOnUse"><path
         id="path160"
         d="M 0,2500 H 2500 V 0 H 0 Z"
         inkscape:connector-curvature="0" /></clipPath><clipPath
       id="clipPath174"
       clipPathUnits="userSpaceOnUse"><path
         id="path172"
         d="M 0,2500 H 2500 V 0 H 0 Z"
         inkscape:connector-curvature="0" /></clipPath><clipPath
       id="clipPath186"
       clipPathUnits="userSpaceOnUse"><path
         id="path184"
         d="M 0,2500 H 2500 V 0 H 0 Z"
         inkscape:connector-curvature="0" /></clipPath><clipPath
       id="clipPath198"
       clipPathUnits="userSpaceOnUse"><path
         id="path196"
         d="M 0,2500 H 2500 V 0 H 0 Z"
         inkscape:connector-curvature="0" /></clipPath></defs><g
     transform="matrix(1.3333333,0,0,-1.3333333,-1131.3965,2503.8614)"
     id="g10"><path
       style="fill:#000000;fill-rule:nonzero;stroke:none;stroke-width:21.27597618"
       inkscape:connector-curvature="0"
       d="m 1714.3693,1511.6166 c -1.0877,2.7471 -3.2289,4.9447 -5.9464,6.1037 -2.7176,1.1591 -5.7859,1.183 -8.5212,0.067 l -82.9764,-28.9353 c -36.333,-12.1671 -73.4351,-21.9048 -111.0605,-29.148 -76.8063,-14.0422 -131.9111,47.4453 -131.9111,47.4453 -3.0586,3.7892 -8.174,5.2385 -12.7656,3.6169 -5.4903,-1.783 -10.887,-3.8423 -16.1697,-6.17 8.8628,60.13 29.3886,117.9491 60.4238,170.2078 3.6239,3.6503 3.6239,9.5408 0,13.1911 -3.4735,4.2852 -9.2762,5.9065 -14.4677,4.0425 -52.3432,-26.1961 -102.1927,-57.1029 -148.9318,-92.3377 -102.1248,-79.3595 -158.9315,-160.2081 -165.9526,-241.2696 -5.3191,-65.9555 38.0839,-109.1457 79.572,-148.9318 l 7.2339,-7.0212 c 14.4545,-42.0542 10.7545,-88.2272 -10.2125,-127.443 -37.0201,-81.6998 -119.1453,-152.9742 -222.12105,-191.4838 -32.33957,-12.34 -59.57289,-21.2759 -59.57289,-21.2759 -5.48974,-1.8287 -8.64308,-7.579 -7.23374,-13.1911 1.47787,-4.7652 5.8621,-8.0318 10.8508,-8.0849 h 2.76577 c 80.6609,19.812 159.08161,47.8296 234.03581,83.6146 l 21.2759,10.638 c 131.9111,68.5087 202.3346,148.9318 210.4194,237.4399 5.5318,56.3813 -27.8716,94.2526 -63.828,127.6557 45.9561,63.828 194.888,114.4648 195.9519,114.4648 l 147.0168,51.0624 c 47.0201,14.8931 83.1892,29.1482 85.104,29.9991 2.9794,0.922 5.404,3.1052 6.6324,5.9718 1.2287,2.8666 1.1373,6.128 -0.2495,8.9213 z m -390.8397,-18.51 c -48.1536,-22.7378 -90.7178,-55.7868 -124.6771,-96.8057 -7.0308,17.317 -9.8034,36.0685 -8.085,54.6793 5.5319,60.6364 70.4235,131.0599 80.4232,141.6979 31.8769,22.5873 64.9761,43.3984 99.1462,62.3387 -25.9304,-50.5062 -42.1677,-105.4238 -47.871,-161.9102 z M 1049.7079,920.9955 c 53.3845,36.8878 96.3317,86.944 124.677,145.315 15.3177,31.7572 22.1353,66.9448 19.7868,102.1246 20.9497,-21.3094 32.121,-50.3545 30.8502,-80.2104 -8.0849,-77.4446 -103.8268,-132.7621 -104.6779,-133.6131 -22.978,-12.1273 -46.5942,-23.1908 -70.6361,-33.6161 z m 269.992,253.6098 c -5.3189,-60.8493 -44.2539,-112.7628 -97.444,-155.7402 13.5288,19.8804 21.7999,42.8643 24.0419,66.8065 5.5318,58.0835 -35.1053,98.5077 -74.8914,137.2301 -39.786,38.7222 -77.6573,76.5935 -73.1893,132.1237 5.5317,65.1046 46.1688,123.1879 95.7418,172.3355 -14.3947,-22.911 -23.6161,-48.6872 -27.0205,-75.5298 -7.2338,-71.2744 40.6372,-115.3157 82.1254,-154.0379 41.4881,-38.7224 74.8913,-69.5726 70.4233,-123.1879 z m -58.7216,142.549 c -19.2296,16.5595 -36.5041,35.2619 -51.4878,55.743 38.935,62.3387 127.6557,102.9757 153.6124,113.4009 27.6324,-26.7453 62.9974,-44.0926 101.0609,-49.573 -21.7014,-7.8721 -154.0381,-54.4665 -203.1855,-119.5709 z"
       id="Shape" /></g></svg>